<svg width="48" height="48" viewBox="0 0 48 48" fill="none" xmlns="http://www.w3.org/2000/svg">
<path d="M24 0.75C11.1562 0.75 0.75 11.1562 0.75 24C0.75 36.8438 11.1562 47.25 24 47.25C36.8438 47.25 47.25 36.8438 47.25 24C47.25 11.1562 36.8438 0.75 24 0.75ZM37.5 26.625C37.5 27.2812 36.9375 27.75 36.375 27.75H27.75V36.375C27.75 37.0312 27.1875 37.5 26.625 37.5H21.375C20.7188 37.5 20.25 37.0312 20.25 36.375V27.75H11.625C10.9688 27.75 10.5 27.2812 10.5 26.625V21.375C10.5 20.8125 10.9688 20.25 11.625 20.25H20.25V11.625C20.25 11.0625 20.7188 10.5 21.375 10.5H26.625C27.1875 10.5 27.75 11.0625 27.75 11.625V20.25H36.375C36.9375 20.25 37.5 20.8125 37.5 21.375V26.625Z" fill="#4A9AFD"/>
</svg>
