<svg width="29" height="26" viewBox="0 0 29 26" fill="none" xmlns="http://www.w3.org/2000/svg">
<path d="M1.5 5.25H27.5C28 5.25 28.5 4.8125 28.5 4.25V1.75C28.5 1.25 28 0.75 27.5 0.75H1.5C0.9375 0.75 0.5 1.25 0.5 1.75V4.25C0.5 4.8125 0.9375 5.25 1.5 5.25ZM1.5 15.25H27.5C28 15.25 28.5 14.8125 28.5 14.25V11.75C28.5 11.25 28 10.75 27.5 10.75H1.5C0.9375 10.75 0.5 11.25 0.5 11.75V14.25C0.5 14.8125 0.9375 15.25 1.5 15.25ZM1.5 25.25H27.5C28 25.25 28.5 24.8125 28.5 24.25V21.75C28.5 21.25 28 20.75 27.5 20.75H1.5C0.9375 20.75 0.5 21.25 0.5 21.75V24.25C0.5 24.8125 0.9375 25.25 1.5 25.25Z" fill="#05335B"/>
</svg>
