<svg width="213" height="157" viewBox="0 0 213 157" fill="none" xmlns="http://www.w3.org/2000/svg">
<g filter="url(#filter0_d_3797_3403)">
<rect width="142.046" height="61.5741" transform="matrix(0.965541 -0.260252 0.257393 0.966307 30 51.9675)" fill="#FFDB5C"/>
</g>
<path d="M53.6247 84.9606C52.5686 85.2435 51.5179 85.3663 50.4727 85.3289C49.4239 85.2787 48.5523 85.0912 47.858 84.7665L48.2045 82.5824C48.8593 82.8625 49.6239 83.0372 50.4983 83.1066C51.3728 83.1759 52.2285 83.0985 53.0657 82.8742C53.774 82.6844 54.3264 82.4535 54.7229 82.1816C55.1194 81.9098 55.3861 81.6174 55.5232 81.3046C55.6568 80.979 55.6787 80.6487 55.589 80.3138C55.4786 79.9017 55.2424 79.613 54.8807 79.4477C54.5154 79.2694 54.0756 79.1733 53.5611 79.1594C53.056 79.129 52.4965 79.1271 51.8824 79.1536C51.2812 79.1767 50.6684 79.1821 50.044 79.17C49.429 79.1415 48.847 79.0559 48.298 78.9132C47.7585 78.754 47.2785 78.4824 46.858 78.0981C46.4376 77.7138 46.1307 77.1611 45.9375 76.4398C45.7407 75.7057 45.7545 74.9843 45.9787 74.2754C46.2123 73.5502 46.68 72.9004 47.3819 72.3258C48.0932 71.7349 49.067 71.2738 50.3034 70.9425C51.1148 70.7251 51.9473 70.6125 52.801 70.6046C53.6548 70.5967 54.4296 70.7066 55.1256 70.9342L54.8563 73.0976C54.1544 72.8992 53.459 72.8025 52.7702 72.8076C52.0779 72.7999 51.4356 72.8754 50.8431 73.0341C50.1477 73.2205 49.6034 73.456 49.2104 73.7408C48.8303 74.0221 48.5734 74.3256 48.4398 74.6512C48.3191 74.9735 48.3053 75.3084 48.3985 75.6562C48.5089 76.0683 48.7403 76.3652 49.0927 76.5469C49.4544 76.7122 49.8861 76.8036 50.3877 76.821C50.9022 76.835 51.4682 76.8352 52.0857 76.8215C52.6998 76.795 53.3126 76.7896 53.9241 76.8052C54.5486 76.8173 55.1288 76.8965 55.6649 77.0427C56.2139 77.1855 56.6922 77.4507 57.0998 77.8385C57.5202 78.2227 57.8254 78.7691 58.0152 79.4774C58.2084 80.1986 58.1882 80.9218 57.9546 81.647C57.7305 82.3558 57.2627 83.0057 56.5514 83.5966C55.8367 84.1746 54.8611 84.6293 53.6247 84.9606ZM68.91 80.6578L68.351 78.5714L68.0967 78.1633L67.1184 74.5121C66.9286 73.8038 66.5694 73.3134 66.0409 73.0409C65.5089 72.7555 64.8114 72.7284 63.9485 72.9596C63.369 73.1149 62.82 73.3586 62.3017 73.6908C61.7962 74.0195 61.3934 74.3966 61.0933 74.8221L59.6756 73.3177C60.1156 72.7444 60.6878 72.2528 61.3925 71.8432C62.1066 71.4172 62.8757 71.0937 63.7 70.8729C65.1939 70.4726 66.4432 70.5243 67.4479 71.0281C68.4619 71.5156 69.1691 72.5063 69.5694 74.0003L71.1896 80.047L68.91 80.6578ZM65.7008 81.6627C64.928 81.8697 64.2174 81.9221 63.5688 81.8198C62.9168 81.7047 62.3677 81.4584 61.9214 81.081C61.4847 80.6873 61.1869 80.1943 61.0282 79.6018C60.8729 79.0223 60.8683 78.4644 61.0146 77.9283C61.1737 77.3887 61.5325 76.8992 62.0911 76.4596C62.6497 76.0201 63.4506 75.6605 64.4938 75.381L67.4882 74.5787L67.9178 76.1821L65.0973 76.9379C64.2731 77.1587 63.7555 77.4423 63.5446 77.7887C63.3303 78.1222 63.2749 78.4822 63.3785 78.8685C63.4958 79.3064 63.7628 79.6076 64.1796 79.772C64.5963 79.9364 65.1138 79.9358 65.732 79.7701C66.3244 79.6114 66.8162 79.3346 67.2074 78.94C67.6115 78.5418 67.8458 78.0511 67.9104 77.4679L68.7043 78.808C68.6346 79.4755 68.342 80.0577 67.8264 80.5548C67.3237 81.0484 66.6152 81.4177 65.7008 81.6627ZM78.099 78.1956L70.9109 69.0649L73.4223 68.392L79.6661 76.4713L78.4297 76.8026L79.9326 66.6476L82.2509 66.0264L80.5911 77.5279L78.099 78.1956ZM92.3822 74.5134C91.236 74.8205 90.171 74.8643 89.1873 74.6448C88.2131 74.4089 87.3807 73.9555 86.6902 73.2847C86.0126 72.6105 85.5375 71.7646 85.2649 70.7472C84.9888 69.7168 84.9709 68.7485 85.2112 67.8421C85.4609 66.9194 85.9246 66.1256 86.6023 65.4609C87.2929 64.7927 88.1534 64.3206 89.1837 64.0445C90.1882 63.7754 91.142 63.7545 92.0449 63.9818C92.9479 64.2092 93.7317 64.6618 94.3965 65.3395C95.0612 66.0172 95.5385 66.897 95.8284 67.9788C95.856 68.0819 95.8806 68.1995 95.9022 68.3317C95.9367 68.4605 95.9631 68.5846 95.9812 68.704L87.3845 71.0074L86.9549 69.404L94.2766 67.4422L93.4646 68.1981C93.3187 67.6022 93.0566 67.1134 92.6782 66.7316C92.2999 66.3499 91.8508 66.0906 91.331 65.9538C90.8241 65.8136 90.2809 65.8211 89.7013 65.9764C89.1089 66.1351 88.6218 66.4037 88.24 66.782C87.8712 67.157 87.6201 67.6107 87.4867 68.1434C87.3628 68.6597 87.3837 69.227 87.5493 69.8452L87.6528 70.2316C87.8185 70.8498 88.1068 71.3592 88.5178 71.7598C88.9289 72.1604 89.4265 72.4204 90.0106 72.54C90.5948 72.6595 91.2218 72.6296 91.8915 72.4501C92.471 72.2948 92.9685 72.0649 93.3838 71.7604C93.7991 71.4558 94.1353 71.0621 94.3924 70.5791L96.0853 71.7198C95.7666 72.3849 95.2928 72.9605 94.6638 73.4465C94.0443 73.9162 93.2837 74.2718 92.3822 74.5134ZM107.515 55.6128C108.751 55.2815 109.872 55.2643 110.876 55.5611C111.89 55.8416 112.761 56.4156 113.491 57.283C114.22 58.1505 114.78 59.3119 115.17 60.7672C115.584 62.3127 115.651 63.6958 115.37 64.9166C115.103 66.134 114.548 67.1524 113.704 67.9719C112.861 68.7914 111.783 69.3772 110.469 69.7292C109.786 69.9121 109.117 70.0155 108.461 70.0395C107.805 70.0635 107.212 69.9877 106.681 69.8123L107.101 67.6706C107.541 67.8152 107.993 67.8804 108.458 67.8661C108.92 67.8389 109.383 67.7632 109.847 67.639C111.122 67.2974 112.028 66.6336 112.564 65.6479C113.101 64.6621 113.163 63.4029 112.753 61.8703C112.687 61.6256 112.605 61.344 112.506 61.0255C112.403 60.6941 112.268 60.3713 112.101 60.0571L113.102 60.7001C113.024 61.2868 112.828 61.8157 112.512 62.2867C112.193 62.7449 111.781 63.1383 111.276 63.467C110.77 63.7957 110.183 64.0498 109.513 64.2292C108.637 64.4639 107.8 64.5087 107.002 64.3636C106.214 64.2023 105.53 63.8677 104.953 63.3599C104.371 62.8393 103.969 62.1604 103.744 61.3233C103.503 60.4217 103.515 59.5903 103.78 58.829C104.042 58.0549 104.498 57.3874 105.148 56.8266C105.812 56.2624 106.6 55.8578 107.515 55.6128ZM108.178 57.5471C107.663 57.6851 107.231 57.9042 106.884 58.2044C106.533 58.4916 106.288 58.8402 106.15 59.2501C106.02 59.6436 106.02 60.0786 106.147 60.5551C106.337 61.2635 106.732 61.7581 107.332 62.0391C107.932 62.3201 108.644 62.3502 109.468 62.1293C110.009 61.9844 110.459 61.7601 110.82 61.4565C111.177 61.14 111.425 60.7768 111.563 60.367C111.698 59.9443 111.707 59.5139 111.59 59.0761C111.476 58.6511 111.265 58.3005 110.956 58.0243C110.644 57.7352 110.254 57.5428 109.787 57.4472C109.32 57.3516 108.783 57.3849 108.178 57.5471ZM125.904 65.5935C124.68 65.9213 123.561 65.945 122.548 65.6645C121.53 65.3711 120.657 64.7907 119.928 63.9233C119.198 63.0558 118.639 61.8944 118.249 60.4391C117.835 58.8936 117.761 57.5122 118.029 56.2949C118.309 55.0741 118.871 54.0539 119.714 53.2344C120.57 52.4114 121.649 51.8257 122.949 51.4771C123.632 51.2942 124.301 51.1908 124.957 51.1668C125.626 51.1394 126.22 51.2151 126.737 51.394L126.317 53.5357C125.878 53.391 125.427 53.3323 124.965 53.3595C124.513 53.3703 124.048 53.4396 123.572 53.5673C122.296 53.9089 121.391 54.5726 120.854 55.5584C120.318 56.5442 120.255 57.8034 120.666 59.336C120.731 59.5807 120.815 59.8687 120.918 60.2001C121.017 60.5187 121.15 60.835 121.317 61.1492L120.317 60.5062C120.407 59.916 120.605 59.3936 120.911 58.9389C121.227 58.4678 121.637 58.068 122.143 57.7393C122.661 57.4071 123.249 57.1531 123.905 56.9771C124.794 56.739 125.633 56.7006 126.421 56.862C127.207 57.0105 127.89 57.3451 128.471 57.8657C129.049 58.3735 129.45 59.0459 129.674 59.883C129.912 60.7717 129.9 61.6031 129.638 62.3773C129.377 63.1514 128.92 63.8189 128.27 64.3796C127.62 64.9404 126.831 65.345 125.904 65.5935ZM125.24 63.6592C125.756 63.5212 126.189 63.3085 126.54 63.0213C126.887 62.7211 127.124 62.3678 127.249 61.9614C127.388 61.5516 127.395 61.1148 127.271 60.6512C127.081 59.9428 126.686 59.4482 126.087 59.1672C125.487 58.8862 124.775 58.8561 123.95 59.077C123.41 59.2219 122.961 59.4526 122.604 59.7691C122.256 60.0693 122.007 60.426 121.855 60.8393C121.717 61.2492 121.708 61.6795 121.828 62.1302C121.939 62.5424 122.15 62.893 122.462 63.182C122.774 63.4711 123.164 63.6634 123.631 63.7591C124.112 63.8513 124.648 63.818 125.24 63.6592ZM137.668 62.4413C136.715 62.6967 135.745 62.8117 134.758 62.7862C133.78 62.7444 132.917 62.5617 132.168 62.2379L132.727 59.9969C133.323 60.265 134.002 60.4282 134.763 60.4866C135.524 60.5449 136.284 60.4723 137.044 60.2687C137.946 60.0271 138.599 59.6587 139.005 59.1635C139.407 58.6555 139.524 58.0859 139.355 57.4548C139.189 56.8366 138.826 56.4093 138.266 56.173C137.705 55.9366 136.91 55.9564 135.88 56.2325L134.643 56.5638L134.183 54.8444L136.814 49.2114L137.396 50.07L130.133 52.0163L129.568 49.9106L138.783 47.4414L139.234 49.1221L136.602 54.7552L135.081 54.3345L135.835 54.1326C137.496 53.6874 138.839 53.7279 139.863 54.254C140.897 54.7638 141.569 55.5983 141.88 56.7574C142.084 57.5173 142.079 58.2709 141.865 59.0184C141.651 59.7659 141.198 60.4462 140.507 61.0594C139.825 61.6563 138.878 62.1169 137.668 62.4413ZM150.916 53.5907L150.554 52.2384L160.947 49.4535L161.31 50.8058L150.916 53.5907ZM150.202 50.9248L149.84 49.5725L160.233 46.7876L160.595 48.1399L150.202 50.9248ZM161.398 56.0827C160.355 56.3622 159.345 56.4536 158.366 56.3568C157.397 56.2438 156.508 55.9644 155.698 55.5188C154.885 55.0602 154.185 54.4543 153.596 53.7009C153.008 52.9475 152.579 52.0685 152.31 51.064C152.041 50.0594 151.973 49.0838 152.105 48.1372C152.238 47.1905 152.544 46.3218 153.022 45.5311C153.497 44.7275 154.127 44.0409 154.913 43.4714C155.709 42.8855 156.628 42.4529 157.671 42.1733C158.779 41.8766 159.842 41.7988 160.86 41.9402C161.887 42.0652 162.81 42.4184 163.628 42.9997L162.434 44.9555C161.803 44.5586 161.15 44.3125 160.476 44.2171C159.798 44.1088 159.105 44.1496 158.397 44.3394C157.688 44.5292 157.069 44.8194 156.539 45.21C156.021 45.5971 155.601 46.0618 155.277 46.6041C154.966 47.143 154.765 47.735 154.676 48.3802C154.586 49.0253 154.635 49.6956 154.821 50.391C155.008 51.0865 155.301 51.6912 155.701 52.2052C156.101 52.7192 156.57 53.1318 157.109 53.4429C157.661 53.7506 158.258 53.9427 158.899 54.0192C159.554 54.0923 160.235 54.0339 160.944 53.8441C161.652 53.6543 162.274 53.3495 162.811 52.9298C163.343 52.4971 163.782 51.9448 164.127 51.2727L166.144 52.3885C165.723 53.2883 165.1 54.0556 164.276 54.6904C163.465 55.3218 162.506 55.7859 161.398 56.0827Z" fill="#05335B"/>
<defs>
<filter id="filter0_d_3797_3403" x="0" y="-0.000244141" width="213" height="156.467" filterUnits="userSpaceOnUse" color-interpolation-filters="sRGB">
<feFlood flood-opacity="0" result="BackgroundImageFix"/>
<feColorMatrix in="SourceAlpha" type="matrix" values="0 0 0 0 0 0 0 0 0 0 0 0 0 0 0 0 0 0 127 0" result="hardAlpha"/>
<feOffset dy="15"/>
<feGaussianBlur stdDeviation="15"/>
<feComposite in2="hardAlpha" operator="out"/>
<feColorMatrix type="matrix" values="0 0 0 0 0 0 0 0 0 0 0 0 0 0 0 0 0 0 0.25 0"/>
<feBlend mode="normal" in2="BackgroundImageFix" result="effect1_dropShadow_3797_3403"/>
<feBlend mode="normal" in="SourceGraphic" in2="effect1_dropShadow_3797_3403" result="shape"/>
</filter>
</defs>
</svg>
