<svg width="31" height="32" viewBox="0 0 31 32" fill="none" xmlns="http://www.w3.org/2000/svg">
<path d="M21 10C20.125 4.4375 17.9375 0.5 15.5 0.5C13 0.5 10.875 4.4375 9.9375 10H21ZM9.5 16C9.5 17.4375 9.5625 18.75 9.6875 20H21.25C21.375 18.75 21.4375 17.4375 21.4375 16C21.4375 14.625 21.375 13.3125 21.25 12H9.6875C9.5625 13.3125 9.5 14.625 9.5 16ZM29.75 10C28 5.8125 24.375 2.5 19.875 1.1875C21.4375 3.3125 22.4375 6.5 23 10H29.75ZM11.0625 1.1875C6.5625 2.5 2.9375 5.8125 1.1875 10H7.9375C8.5 6.5 9.5 3.3125 11.0625 1.1875ZM30.4375 12H23.25C23.375 13.3125 23.5 14.6875 23.5 16C23.5 17.375 23.375 18.6875 23.25 20H30.4375C30.75 18.75 30.9375 17.4375 30.9375 16C30.9375 14.625 30.75 13.3125 30.4375 12ZM7.5 16C7.5 14.6875 7.5625 13.3125 7.6875 12H0.5C0.1875 13.3125 0 14.625 0 16C0 17.4375 0.1875 18.75 0.5 20H7.6875C7.5625 18.6875 7.5 17.375 7.5 16ZM9.9375 22C10.875 27.625 13 31.5 15.5 31.5C17.9375 31.5 20.125 27.625 21 22H9.9375ZM19.875 30.875C24.375 29.5625 28 26.25 29.75 22H23C22.5 25.5625 21.4375 28.75 19.875 30.875ZM1.1875 22C2.9375 26.25 6.5625 29.5625 11.0625 30.875C9.5 28.75 8.5 25.5625 7.9375 22H1.1875Z" fill="#05335B"/>
</svg>
