<svg width="123" height="47" viewBox="0 0 123 47" fill="none" xmlns="http://www.w3.org/2000/svg">
<path d="M9.62472 44.9606C8.56864 45.2435 7.51795 45.3663 6.47265 45.3289C5.4239 45.2787 4.55235 45.0912 3.85799 44.7665L4.20451 42.5824C4.85931 42.8625 5.62392 43.0372 6.49833 43.1066C7.37275 43.1759 8.22853 43.0985 9.06567 42.8742C9.77401 42.6844 10.3264 42.4535 10.7229 42.1816C11.1194 41.9098 11.3861 41.6174 11.5232 41.3046C11.6568 40.979 11.6787 40.6487 11.589 40.3138C11.4786 39.9017 11.2424 39.613 10.8807 39.4477C10.5154 39.2694 10.0756 39.1733 9.56109 39.1594C9.05603 39.129 8.49647 39.1271 7.88241 39.1536C7.28122 39.1767 6.66842 39.1821 6.044 39.17C5.42901 39.1415 4.84702 39.0559 4.29803 38.9132C3.75846 38.754 3.27845 38.4824 2.858 38.0981C2.43755 37.7138 2.1307 37.1611 1.93745 36.4398C1.74075 35.7057 1.75449 34.9843 1.97866 34.2754C2.21227 33.5502 2.68001 32.9004 3.38188 32.3258C4.09318 31.7349 5.06702 31.2738 6.30341 30.9425C7.11479 30.7251 7.94733 30.6125 8.80105 30.6046C9.65476 30.5967 10.4296 30.7066 11.1256 30.9342L10.8563 33.0976C10.1544 32.8992 9.459 32.8025 8.77019 32.8076C8.07792 32.7999 7.43557 32.8754 6.84314 33.0341C6.14767 33.2205 5.60343 33.456 5.2104 33.7408C4.83026 34.0221 4.57339 34.3256 4.43979 34.6512C4.31908 34.9735 4.30531 35.3084 4.39848 35.6562C4.50891 36.0683 4.7403 36.3652 5.09266 36.5469C5.45445 36.7122 5.88614 36.8036 6.38775 36.821C6.90223 36.835 7.46823 36.8352 8.08574 36.8215C8.69981 36.795 9.31261 36.7896 9.92415 36.8052C10.5486 36.8173 11.1288 36.8965 11.6649 37.0427C12.2139 37.1855 12.6922 37.4507 13.0998 37.8385C13.5202 38.2227 13.8254 38.7691 14.0152 39.4774C14.2084 40.1986 14.1882 40.9218 13.9546 41.647C13.7305 42.3558 13.2627 43.0057 12.5514 43.5966C11.8367 44.1746 10.8611 44.6293 9.62472 44.9606ZM24.91 40.6578L24.351 38.5714L24.0967 38.1633L23.1184 34.5121C22.9286 33.8038 22.5694 33.3134 22.0409 33.0409C21.5089 32.7555 20.8114 32.7284 19.9485 32.9596C19.369 33.1149 18.82 33.3586 18.3017 33.6908C17.7962 34.0195 17.3934 34.3966 17.0933 34.8221L15.6756 33.3177C16.1156 32.7444 16.6878 32.2528 17.3925 31.8432C18.1066 31.4172 18.8757 31.0937 19.7 30.8729C21.1939 30.4726 22.4432 30.5243 23.4479 31.0281C24.4619 31.5156 25.1691 32.5063 25.5694 34.0003L27.1896 40.047L24.91 40.6578ZM21.7008 41.6627C20.928 41.8697 20.2174 41.9221 19.5688 41.8198C18.9168 41.7047 18.3677 41.4584 17.9214 41.081C17.4847 40.6873 17.1869 40.1943 17.0282 39.6018C16.8729 39.0223 16.8683 38.4644 17.0146 37.9283C17.1737 37.3887 17.5325 36.8992 18.0911 36.4596C18.6497 36.0201 19.4506 35.6605 20.4938 35.381L23.4882 34.5787L23.9178 36.1821L21.0973 36.9379C20.2731 37.1587 19.7555 37.4423 19.5446 37.7887C19.3303 38.1222 19.2749 38.4822 19.3785 38.8685C19.4958 39.3064 19.7628 39.6076 20.1796 39.772C20.5963 39.9364 21.1138 39.9358 21.732 39.7701C22.3244 39.6114 22.8162 39.3346 23.2074 38.94C23.6115 38.5418 23.8458 38.0511 23.9104 37.4679L24.7043 38.808C24.6346 39.4755 24.342 40.0577 23.8264 40.5548C23.3237 41.0484 22.6152 41.4177 21.7008 41.6627ZM34.099 38.1956L26.9109 29.0649L29.4223 28.392L35.6661 36.4713L34.4297 36.8026L35.9326 26.6476L38.2509 26.0264L36.5911 37.5279L34.099 38.1956ZM48.3822 34.5134C47.236 34.8205 46.171 34.8643 45.1873 34.6448C44.2131 34.4089 43.3807 33.9555 42.6902 33.2847C42.0126 32.6105 41.5375 31.7646 41.2649 30.7472C40.9888 29.7168 40.9709 28.7485 41.2112 27.8421C41.4609 26.9194 41.9246 26.1256 42.6023 25.4609C43.2929 24.7927 44.1534 24.3206 45.1837 24.0445C46.1882 23.7754 47.142 23.7545 48.0449 23.9818C48.9479 24.2092 49.7317 24.6618 50.3965 25.3395C51.0612 26.0172 51.5385 26.897 51.8284 27.9788C51.856 28.0819 51.8806 28.1995 51.9022 28.3317C51.9367 28.4605 51.9631 28.5846 51.9812 28.704L43.3845 31.0074L42.9549 29.404L50.2766 27.4422L49.4646 28.1981C49.3187 27.6022 49.0566 27.1134 48.6782 26.7316C48.2999 26.3499 47.8508 26.0906 47.331 25.9538C46.8241 25.8136 46.2809 25.8211 45.7013 25.9764C45.1089 26.1351 44.6218 26.4037 44.24 26.782C43.8712 27.157 43.6201 27.6107 43.4867 28.1434C43.3628 28.6597 43.3837 29.227 43.5493 29.8452L43.6528 30.2316C43.8185 30.8498 44.1068 31.3592 44.5178 31.7598C44.9289 32.1604 45.4265 32.4204 46.0106 32.54C46.5948 32.6595 47.2218 32.6296 47.8915 32.4501C48.471 32.2948 48.9685 32.0649 49.3838 31.7604C49.7991 31.4558 50.1353 31.0621 50.3924 30.5791L52.0853 31.7198C51.7666 32.3849 51.2928 32.9605 50.6638 33.4465C50.0443 33.9162 49.2837 34.2718 48.3822 34.5134ZM63.5147 15.6128C64.7511 15.2815 65.8715 15.2643 66.8759 15.5611C67.8897 15.8416 68.7613 16.4156 69.4907 17.283C70.22 18.1505 70.7797 19.3119 71.1696 20.7672C71.5837 22.3127 71.6507 23.6958 71.3704 24.9166C71.1031 26.134 70.5477 27.1524 69.7044 27.9719C68.8611 28.7914 67.7827 29.3772 66.469 29.7292C65.7864 29.9121 65.117 30.0155 64.4609 30.0395C63.8047 30.0635 63.2116 29.9877 62.6815 29.8123L63.1015 27.6706C63.5405 27.8152 63.9928 27.8804 64.4583 27.8661C64.9203 27.8389 65.3832 27.7632 65.8468 27.639C67.1218 27.2974 68.0276 26.6336 68.5641 25.6479C69.1005 24.6621 69.1634 23.4029 68.7528 21.8703C68.6872 21.6256 68.6049 21.344 68.5057 21.0255C68.4031 20.6941 68.2683 20.3713 68.1013 20.0571L69.1018 20.7001C69.0244 21.2868 68.8279 21.8157 68.5124 22.2867C68.1934 22.7449 67.7812 23.1383 67.2757 23.467C66.7702 23.7957 66.1826 24.0498 65.5129 24.2292C64.6372 24.4639 63.8002 24.5087 63.0022 24.3636C62.2135 24.2023 61.5303 23.8677 60.9525 23.3599C60.3713 22.8393 59.9686 22.1604 59.7442 21.3233C59.5027 20.4217 59.5146 19.5903 59.7799 18.829C60.0418 18.0549 60.4979 17.3874 61.1483 16.8266C61.8115 16.2624 62.6003 15.8578 63.5147 15.6128ZM64.178 17.5471C63.6628 17.6851 63.2315 17.9042 62.884 18.2044C62.5331 18.4916 62.2883 18.8402 62.1496 19.2501C62.0204 19.6436 62.0196 20.0786 62.1473 20.5551C62.3371 21.2635 62.7319 21.7581 63.3318 22.0391C63.9316 22.3201 64.6436 22.3502 65.4679 22.1293C66.0088 21.9844 66.4595 21.7601 66.8198 21.4565C67.1767 21.14 67.4245 20.7768 67.5632 20.367C67.6984 19.9443 67.7073 19.5139 67.59 19.0761C67.4761 18.6511 67.2648 18.3005 66.9561 18.0243C66.644 17.7352 66.2543 17.5428 65.7869 17.4472C65.3196 17.3516 64.7833 17.3849 64.178 17.5471ZM81.9036 25.5935C80.6801 25.9213 79.5614 25.945 78.5476 25.6645C77.5304 25.3711 76.657 24.7907 75.9277 23.9233C75.1983 23.0558 74.6387 21.8944 74.2487 20.4391C73.8346 18.8936 73.7612 17.5122 74.0286 16.2949C74.3088 15.0741 74.8706 14.0539 75.7139 13.2344C76.5701 12.4114 77.6486 11.8257 78.9493 11.4771C79.6319 11.2942 80.3013 11.1908 80.9574 11.1668C81.6265 11.1394 82.2196 11.2151 82.7369 11.394L82.3169 13.5357C81.8778 13.391 81.4273 13.3323 80.9652 13.3595C80.5126 13.3703 80.048 13.4396 79.5715 13.5673C78.2965 13.9089 77.3907 14.5726 76.8543 15.5584C76.3178 16.5442 76.2549 17.8034 76.6655 19.336C76.7311 19.5807 76.8152 19.8687 76.9178 20.2001C77.017 20.5187 77.15 20.835 77.317 21.1492L76.3165 20.5062C76.4069 19.916 76.6051 19.3936 76.9111 18.9389C77.2266 18.4678 77.6371 18.068 78.1426 17.7393C78.661 17.4071 79.2486 17.1531 79.9054 16.9771C80.7941 16.739 81.6327 16.7006 82.4213 16.862C83.2065 17.0105 83.8897 17.3451 84.471 17.8657C85.0487 18.3735 85.4498 19.0459 85.6741 19.883C85.9122 20.7717 85.9003 21.6031 85.6384 22.3773C85.3765 23.1514 84.9204 23.8189 84.2701 24.3796C83.6197 24.9404 82.8309 25.345 81.9036 25.5935ZM81.2404 23.6592C81.7555 23.5212 82.1886 23.3085 82.5395 23.0213C82.887 22.7211 83.1236 22.3678 83.2494 21.9614C83.388 21.5516 83.3952 21.1148 83.271 20.6512C83.0812 19.9428 82.6864 19.4482 82.0866 19.1672C81.4867 18.8862 80.7747 18.8561 79.9504 19.077C79.4095 19.2219 78.9606 19.4526 78.6037 19.7691C78.2562 20.0693 78.0067 20.426 77.8552 20.8393C77.7165 21.2492 77.7076 21.6795 77.8284 22.1302C77.9388 22.5424 78.1501 22.893 78.4622 23.182C78.7743 23.4711 79.164 23.6634 79.6314 23.7591C80.1116 23.8513 80.6479 23.818 81.2404 23.6592ZM93.6677 22.4413C92.7146 22.6967 91.7446 22.8117 90.7578 22.7862C89.7803 22.7444 88.9169 22.5617 88.1676 22.2379L88.7266 19.9969C89.323 20.265 90.0017 20.4282 90.7627 20.4866C91.5238 20.5449 92.2842 20.4723 93.0441 20.2687C93.9456 20.0271 94.5992 19.6587 95.0049 19.1635C95.4071 18.6555 95.5236 18.0859 95.3545 17.4548C95.1889 16.8366 94.8259 16.4093 94.2657 16.173C93.7054 15.9366 92.9101 15.9564 91.8798 16.2325L90.6434 16.5638L90.1827 14.8444L92.8144 9.21136L93.3965 10.07L86.1327 12.0163L85.5685 9.91057L94.7834 7.44144L95.2338 9.12215L92.602 14.7552L91.0813 14.3345L91.8347 14.1326C93.4961 13.6874 94.839 13.7279 95.8634 14.254C96.8973 14.7638 97.5695 15.5983 97.8801 16.7574C98.0837 17.5173 98.0786 18.2709 97.8648 19.0184C97.6509 19.7659 97.1983 20.4462 96.5067 21.0594C95.8246 21.6563 94.8783 22.1169 93.6677 22.4413ZM106.916 13.5907L106.554 12.2384L116.947 9.45354L117.31 10.8058L106.916 13.5907ZM106.202 10.9248L105.84 9.57248L116.233 6.78759L116.595 8.13988L106.202 10.9248ZM117.398 16.0827C116.355 16.3622 115.345 16.4536 114.366 16.3568C113.397 16.2438 112.508 15.9644 111.698 15.5188C110.885 15.0602 110.185 14.4543 109.596 13.7009C109.008 12.9475 108.579 12.0685 108.31 11.064C108.041 10.0594 107.973 9.0838 108.105 8.13716C108.238 7.19052 108.544 6.32183 109.022 5.53109C109.497 4.72748 110.127 4.04091 110.913 3.47139C111.709 2.88555 112.628 2.45286 113.671 2.17334C114.779 1.87656 115.842 1.79884 116.86 1.9402C117.887 2.06522 118.81 2.41841 119.628 2.99974L118.434 4.95555C117.803 4.55864 117.15 4.3125 116.476 4.21711C115.798 4.10884 115.105 4.14961 114.397 4.33941C113.688 4.52921 113.069 4.8194 112.539 5.20996C112.021 5.59707 111.601 6.0618 111.277 6.60414C110.966 7.14303 110.765 7.73503 110.676 8.38015C110.586 9.02528 110.635 9.69557 110.821 10.391C111.008 11.0865 111.301 11.6912 111.701 12.2052C112.101 12.7192 112.57 13.1318 113.109 13.4429C113.661 13.7506 114.258 13.9427 114.899 14.0192C115.554 14.0923 116.235 14.0339 116.944 13.8441C117.652 13.6543 118.274 13.3495 118.811 12.9298C119.343 12.4971 119.782 11.9448 120.127 11.2727L122.144 12.3885C121.723 13.2883 121.1 14.0556 120.276 14.6904C119.465 15.3218 118.506 15.7859 117.398 16.0827Z" fill="#05335B"/>
</svg>
