<svg width="21" height="21" viewBox="0 0 21 21" fill="none" xmlns="http://www.w3.org/2000/svg">
<path d="M20.2266 17.8047L16.3203 13.8984C16.125 13.7422 15.8906 13.625 15.6562 13.625H15.0312C16.0859 12.2578 16.75 10.5391 16.75 8.625C16.75 4.17188 13.0781 0.5 8.625 0.5C4.13281 0.5 0.5 4.17188 0.5 8.625C0.5 13.1172 4.13281 16.75 8.625 16.75C10.5 16.75 12.2188 16.125 13.625 15.0312V15.6953C13.625 15.9297 13.7031 16.1641 13.8984 16.3594L17.7656 20.2266C18.1562 20.6172 18.7422 20.6172 19.0938 20.2266L20.1875 19.1328C20.5781 18.7812 20.5781 18.1953 20.2266 17.8047ZM8.625 13.625C5.85156 13.625 3.625 11.3984 3.625 8.625C3.625 5.89062 5.85156 3.625 8.625 3.625C11.3594 3.625 13.625 5.89062 13.625 8.625C13.625 11.3984 11.3594 13.625 8.625 13.625Z" fill="#05335B"/>
</svg>
