<svg width="430" height="54" viewBox="0 0 430 54" fill="none" xmlns="http://www.w3.org/2000/svg">
<path d="M339.922 50.237C314.423 47.3465 289.697 40.4203 257.103 22.9685C244.374 16.0424 224.035 6.06212 213.887 3.38982C203.738 0.717514 191.268 -0.864054 181.421 0.499367C177.035 1.09927 171.703 1.26288 159.877 4.53509C148.181 7.97091 134.851 13.5882 125.735 18.0057C107.975 26.677 84.9268 29.9493 68.1135 30.331C30.9607 31.2036 0 13.5337 0 13.5337V54H430.009V35.0757C430.009 35.0757 407.864 45.6559 384.342 49.0917C360.993 52.3639 350.07 51.3822 339.922 50.237Z" fill="white"/>
</svg>
