<svg width="32" height="32" viewBox="0 0 32 32" fill="none" xmlns="http://www.w3.org/2000/svg">
<path d="M32 29V12.5625C32 11.625 31.5 10.75 30.8125 10.1875C29.25 9 28 8 20.5625 2.625C19.5 1.875 17.4375 0 16 0.0625C14.5 0 12.4375 1.875 11.375 2.625C3.9375 8 2.6875 9 1.125 10.1875C0.4375 10.75 0 11.625 0 12.5625V29C0 30.6875 1.3125 32 3 32H29C30.625 32 32 30.6875 32 29ZM27.875 16.75L28.4375 17.5625C28.5 17.625 28.5 17.75 28.5 17.875C28.5 18 28.4375 18.1875 28.3125 18.25C26.875 19.3125 24.875 20.8125 21.75 23.0625C20.4375 24 18.1875 26.0625 16 26C13.75 26.0625 11.5 24 10.1875 23.0625C7.0625 20.8125 5.0625 19.3125 3.625 18.25C3.5 18.1875 3.4375 18 3.4375 17.875C3.4375 17.75 3.4375 17.625 3.5 17.5625L4.0625 16.75C4.25 16.5 4.5625 16.4375 4.8125 16.625C6.1875 17.6875 8.25 19.1875 11.375 21.4375C12.4375 22.1875 14.5 24.0625 16 24C17.4375 24.0625 19.5 22.1875 20.5625 21.4375C23.6875 19.1875 25.75 17.6875 27.125 16.625C27.375 16.4375 27.6875 16.5 27.875 16.75Z" fill="white"/>
</svg>
