<svg width="430" height="73" viewBox="0 0 430 73" fill="none" xmlns="http://www.w3.org/2000/svg">
<path 
fill="#0073CF"
d="M339.915 5.06127C314.416 8.94889 289.691 18.2645 257.097 41.7368C244.369 51.0524 224.03 64.4757 213.882 68.0699C203.734 71.6641 191.264 73.7913 181.417 71.9575C177.031 71.1506 171.699 70.9306 159.874 66.5295C148.178 61.9084 134.848 54.3532 125.732 48.4118C107.973 36.749 84.925 32.3479 68.112 31.8344C30.96 30.6608 0 54.4266 0 54.4266V4.57764e-05H430V25.4529C430 25.4529 407.855 11.2228 384.334 6.60165C360.985 2.20058 350.063 3.5209 339.915 5.06127Z" fill="white"/>
</svg>
