<svg width="64" height="64" viewBox="0 0 64 64" fill="none" xmlns="http://www.w3.org/2000/svg">
<path d="M0 7V37C0 38.75 1.25 40 3 40H13C14.625 40 16 38.75 16 37V7C16 5.375 14.625 4 13 4H3C1.25 4 0 5.375 0 7ZM5 32C5 30.375 6.25 29 8 29C9.625 29 11 30.375 11 32C11 33.75 9.625 35 8 35C6.25 35 5 33.75 5 32ZM39 64C42 64 48 63 48 53.875C48 48.625 44.75 45.625 43.75 42H56.5C60.625 42 63.875 38.625 64 34.75C64 32.5 63 30.125 61.5 28.625C62.75 25.75 62.5 21.625 60.375 18.75C61.375 15.5 60.375 11.5 58.25 9.375C58.875 7.125 58.625 5.25 57.5 3.75C55 0.125 48.625 0 43.25 0H42.875C36.875 0.125 32 2.25 28 4C26 4.875 23.375 6 21.375 6C20.625 6.125 20 6.75 20 7.5V34.25C20 34.75 20.125 35.125 20.375 35.375C25.375 40.25 27.5 45.375 31.5 49.5C33.375 51.375 34 54.125 34.75 56.875C35.25 59.125 36.375 64 39 64Z" fill="#FA6E59"/>
</svg>
