<svg width="80" height="50" viewBox="0 0 80 50" fill="none" xmlns="http://www.w3.org/2000/svg">
<path d="M54.25 0H43.5C42.5 0 41.625 0.375 40.875 1.125L28.5 12.375C26.5 14.375 26.5 17.5 28.25 19.375C29.875 21.125 33.125 21.625 35.25 19.75C35.25 19.75 35.25 19.75 35.375 19.75L45.25 10.625C46.125 9.875 47.375 9.875 48.125 10.75C48.875 11.5 48.875 12.75 48 13.5L44.75 16.5L63 31.25C63.25 31.625 63.625 31.875 63.875 32.25V8L57.125 1.25C56.375 0.5 55.375 0 54.25 0ZM68 8.125V36.125C68 38.25 69.75 40.125 72 40.125H80V8.125H68ZM74 36.125C72.875 36.125 72 35.125 72 34.125C72 33 72.875 32.125 74 32.125C75 32.125 76 33 76 34.125C76 35.125 75 36.125 74 36.125ZM0 40H8C10.125 40 12 38.25 12 36V8.125H0V40ZM6 32.125C7 32.125 8 33 8 34.125C8 35.125 7 36.125 6 36.125C4.875 36.125 4 35.125 4 34.125C4 33 4.875 32.125 6 32.125ZM60.375 34.375L41.75 19.25L38 22.625C34.25 26.125 28.625 25.75 25.25 22.125C22 18.5 22.25 12.75 25.875 9.375L36.125 0H25.625C24.5 0 23.5 0.5 22.75 1.25L16 8V36H18.25L29.5 46.25C33 49.125 38 48.5 40.75 45.125H40.875L43 47C45 48.625 48 48.375 49.625 46.375L53.5 41.5L54.25 42.125C55.875 43.5 58.375 43.25 59.875 41.5L61 40C62.375 38.25 62.125 35.75 60.375 34.375Z" fill="#05335B"/>
</svg>
