<svg width="64" height="65" viewBox="0 0 64 65" fill="none" xmlns="http://www.w3.org/2000/svg">
<path d="M44 12C44 5.375 38.625 0 32 0C25.25 0 20 5.375 20 12C20 18.75 25.25 24 32 24C38.625 24 44 18.75 44 12ZM29.125 30.25C21.75 25.625 9.75 24.375 3.625 24.125C1.625 24 0 25.5 0 27.5V55.25C0 57.125 1.375 58.625 3.25 58.625C8.75 59 19.75 60 27.375 63.875C28.5 64.5 30 63.625 30 62.375V31.625C30 31 29.625 30.5 29.125 30.25ZM60.25 24.125C54.125 24.375 42.125 25.625 34.75 30.25C34.25 30.5 34 31.125 34 31.625V62.375C34 63.625 35.375 64.5 36.5 63.875C44.125 60 55.125 59 60.625 58.75C62.5 58.625 64 57.125 64 55.25V27.5C64 25.5 62.25 24 60.25 24.125Z" fill="#05335B"/>
</svg>
