<svg width="81" height="64" viewBox="0 0 81 64" fill="none" xmlns="http://www.w3.org/2000/svg">
<path d="M27 44C26.625 44 26.375 44.125 26 44.25C24.375 44.75 22.75 45 21 45C19.125 45 17.5 44.75 15.875 44.25C15.5 44.125 15.25 44 15 44C7.125 44 0.875 50.375 1 58.125C1 61.375 3.625 64 7 64H35C38.25 64 40.875 61.375 41 58.125C41 50.375 34.75 44 27 44ZM21 40C27.625 40 33 34.75 33 28C33 21.375 27.625 16 21 16C14.25 16 9 21.375 9 28C9 34.75 14.25 40 21 40ZM75 0H27C23.625 0 21 2.875 21 6.25V12C23.875 12 26.625 12.875 29 14.25V8H73V44H65V36H49V44H39.375C41.75 46.125 43.5 48.875 44.375 52H75C78.25 52 81 49.25 81 45.875V6.25C81 2.875 78.25 0 75 0Z" fill="#05335B"/>
</svg>
