<svg width="80" height="56" viewBox="0 0 80 56" fill="none" xmlns="http://www.w3.org/2000/svg">
<path d="M24 28C31.625 28 38 21.75 38 14C38 6.375 31.625 0 24 0C16.25 0 10 6.375 10 14C10 21.75 16.25 28 24 28ZM33.5 32H32.5C29.875 33.25 27 34 24 34C20.875 34 18 33.25 15.375 32H14.375C6.375 32 0 38.5 0 46.5V50C0 53.375 2.625 56 6 56H42C45.25 56 48 53.375 48 50V46.5C48 38.5 41.5 32 33.5 32ZM60 28C66.625 28 72 22.625 72 16C72 9.375 66.625 4 60 4C53.375 4 48 9.375 48 16C48 22.625 53.375 28 60 28ZM66 32H65.5C63.75 32.625 61.875 33 60 33C58 33 56.125 32.625 54.375 32H54C51.375 32 49 32.75 47 34C50 37.25 52 41.625 52 46.5V51.25C52 51.5 51.875 51.75 51.875 52H74C77.25 52 80 49.375 80 46C80 38.375 73.625 32 66 32Z" fill="#05335B"/>
</svg>
