<svg width="64" height="48" viewBox="0 0 64 48" fill="none" xmlns="http://www.w3.org/2000/svg">
<path d="M62 40H8V2C8 1 7 0 6 0H2C0.875 0 0 1 0 2V44C0 46.25 1.75 48 4 48H62C63 48 64 47.125 64 46V42C64 41 63 40 62 40ZM58 4H43.125C40.5 4 39.125 7.25 41 9.125L45.125 13.25L36 22.375L26.75 13.25C25.25 11.625 22.625 11.625 21.125 13.25L12.5 21.875C11.75 22.625 11.75 23.875 12.5 24.625L15.375 27.5C16.125 28.25 17.375 28.25 18.125 27.5L24 21.75L33.125 30.875C34.625 32.5 37.25 32.5 38.75 30.875L50.75 18.875L54.875 23C56.75 24.875 59.875 23.5 59.875 20.875V6C60 5 59 4 58 4Z" fill="#05335B"/>
</svg>
