<svg width="1512" height="93" viewBox="0 0 1512 93" fill="none" xmlns="http://www.w3.org/2000/svg">
<path 
fill="white"
d="M1195.24 6.4808C1105.57 11.4588 1018.63 23.3872 904.025 53.4431C859.27 65.3715 787.752 82.5597 752.069 87.162C716.386 91.7643 672.538 94.4881 637.913 92.14C622.49 91.1068 603.742 90.825 562.162 85.1896C521.035 79.2723 474.163 69.5981 442.109 61.9902C379.663 47.0562 298.62 41.4207 239.501 40.7633C108.864 39.2605 0 69.692 0 69.692V0H1512V32.5918C1512 32.5918 1434.13 14.3705 1351.43 8.45321C1269.32 2.81774 1230.92 4.50838 1195.24 6.4808Z" />
</svg>
