<svg width="1512" height="139" viewBox="0 0 1512 139" fill="none" xmlns="http://www.w3.org/2000/svg">
<path d="M1196.26 129.091C1106.53 121.663 1019.51 103.866 904.802 59.0208C860.008 41.2231 788.429 15.5775 752.715 8.7106C717.002 1.84375 673.116 -2.2203 638.461 1.28319C623.026 2.82473 604.261 3.24515 562.645 11.6535C521.483 20.4824 474.571 34.9168 442.489 46.2681C379.99 68.5503 298.877 76.9587 239.707 77.9397C108.958 80.1819 0 34.7766 0 34.7766V138.76H1513.3V90.1319C1513.3 90.1319 1435.37 117.319 1352.59 126.148C1270.42 134.556 1231.98 132.034 1196.26 129.091Z" fill="white"/>
</svg>
