<svg width="179" height="106" viewBox="0 0 179 106" fill="none" xmlns="http://www.w3.org/2000/svg">
<path d="M172.078 25.6094L95.7891 2.09375C91.6875 0.726562 87.0391 0.726562 82.9375 2.09375L6.64844 25.6094C0.359375 27.5234 0.359375 36 6.64844 37.9141L20.0469 42.0156C17.0391 45.5703 15.3984 50.2188 15.125 54.8672C12.3906 56.5078 10.75 59.2422 10.75 62.25C10.75 65.2578 12.1172 67.7188 14.3047 69.3594L7.46875 100.805C6.92188 103.539 8.83594 106 11.5703 106H27.1562C29.8906 106 31.8047 103.539 31.2578 100.805L24.4219 69.3594C26.6094 67.7188 28.25 65.2578 28.25 62.25C28.25 59.2422 26.3359 56.5078 23.875 55.1406C24.1484 51.0391 26.0625 47.2109 29.6172 45.0234L82.9375 61.4297C85.3984 62.25 90.3203 63.0703 95.7891 61.4297L172.078 37.9141C178.367 36 178.367 27.5234 172.078 25.6094ZM98.25 69.9062C90.5938 72.0938 83.7578 71 80.4766 69.9062L40.8281 57.6016L37 88.5C37 98.3438 60.2422 106 89.5 106C118.484 106 142 98.3438 142 88.5L137.898 57.6016L98.25 69.9062Z" fill="#05335B"/>
</svg>
