<?xml version="1.0" encoding="UTF-8" standalone="no"?>
<svg
   xmlns:dc="http://purl.org/dc/elements/1.1/"
   xmlns:cc="http://creativecommons.org/ns#"
   xmlns:rdf="http://www.w3.org/1999/02/22-rdf-syntax-ns#"
   xmlns:svg="http://www.w3.org/2000/svg"
   xmlns="http://www.w3.org/2000/svg"
   xmlns:sodipodi="http://sodipodi.sourceforge.net/DTD/sodipodi-0.dtd"
   xmlns:inkscape="http://www.inkscape.org/namespaces/inkscape"
   width="900"
   height="600"
   viewBox="-75 -40 120 80"
   id="svg2"
   version="1.1"
   inkscape:version="0.48.2 r9819"
   sodipodi:docname="AJAX.svg">
  <metadata
     id="metadata31">
    <rdf:RDF>
      <cc:Work
         rdf:about="">
        <dc:format>image/svg+xml</dc:format>
        <dc:type
           rdf:resource="http://purl.org/dc/dcmitype/StillImage" />
      </cc:Work>
    </rdf:RDF>
  </metadata>
  <defs
     id="defs29" />
  <sodipodi:namedview
     pagecolor="#ffffff"
     bordercolor="#666666"
     borderopacity="1"
     objecttolerance="10"
     gridtolerance="10"
     guidetolerance="10"
     inkscape:pageopacity="0"
     inkscape:pageshadow="2"
     inkscape:window-width="1280"
     inkscape:window-height="1004"
     id="namedview27"
     showgrid="false"
     inkscape:zoom="0.50597419"
     inkscape:cx="266.63891"
     inkscape:cy="262.24492"
     inkscape:window-x="-8"
     inkscape:window-y="-8"
     inkscape:window-maximized="1"
     inkscape:current-layer="svg2" />
  <comment
     id="comment12">rotation angles = -arctan(8/9)</comment>
  <rect
     id="rect2994"
     fill="white"
     height="80"
     width="120"
     y="-40"
     x="-75"
     style="stroke:#000000;stroke-opacity:1;fill:none;stroke-width:3.33333333;stroke-miterlimit:4;stroke-dasharray:none" />
  <rect
     id="rect3775"
     fill="white"
     height="80"
     width="120"
     y="-40"
     x="-75"
     style="stroke:none" />
  <rect
     style="fill:#004614;fill-opacity:1;stroke:none"
     id="rect3777"
     fill="#006600"
     height="80"
     width="90"
     y="-40"
     x="-45" />
  <circle
     id="circle3779"
     fill="white"
     r="24"
     style="stroke:none" />
  <circle
     style="fill:#004614;fill-opacity:1;stroke:none"
     id="circle3781"
     transform="rotate(-41.63353933657,45,-40)"
     fill="#006600"
     cy="-40"
     cx="-7"
     r="22" />
  <g
     fill="white"
     transform="rotate(-41.63353933657) translate(16,0)"
     id="g3783">
    <g
       id="g3785">
      <polygon
         transform="translate(8,0) rotate(18)"
         points="0,0 -8,0 -8,4"
         id="polygon3787" />
      <polygon
         transform="matrix(0.95105652,-0.30901699,-0.30901699,-0.95105652,8,0)"
         points="-8,4 0,0 -8,0 "
         id="use3789" />
    </g>
    <g
       id="use3791"
       transform="matrix(0.30901699,0.95105652,-0.95105652,0.30901699,0,0)">
      <polygon
         transform="matrix(0.95105652,0.30901699,-0.30901699,0.95105652,8,0)"
         points="-8,4 0,0 -8,0 "
         id="polygon3880" />
      <polygon
         transform="matrix(0.95105652,-0.30901699,-0.30901699,-0.95105652,8,0)"
         points="-8,4 0,0 -8,0 "
         id="use3882" />
    </g>
    <g
       id="use3793"
       transform="matrix(0.30901699,-0.95105652,0.95105652,0.30901699,0,0)">
      <polygon
         transform="matrix(0.95105652,0.30901699,-0.30901699,0.95105652,8,0)"
         points="-8,4 0,0 -8,0 "
         id="polygon3886" />
      <polygon
         transform="matrix(0.95105652,-0.30901699,-0.30901699,-0.95105652,8,0)"
         points="-8,4 0,0 -8,0 "
         id="use3888" />
    </g>
    <g
       id="use3795"
       transform="matrix(-0.80901699,0.58778525,-0.58778525,-0.80901699,0,0)">
      <polygon
         transform="matrix(0.95105652,0.30901699,-0.30901699,0.95105652,8,0)"
         points="-8,4 0,0 -8,0 "
         id="polygon3892" />
      <polygon
         transform="matrix(0.95105652,-0.30901699,-0.30901699,-0.95105652,8,0)"
         points="-8,4 0,0 -8,0 "
         id="use3894" />
    </g>
    <g
       id="use3797"
       transform="matrix(-0.80901699,-0.58778525,0.58778525,-0.80901699,0,0)">
      <polygon
         transform="matrix(0.95105652,0.30901699,-0.30901699,0.95105652,8,0)"
         points="-8,4 0,0 -8,0 "
         id="polygon3898" />
      <polygon
         transform="matrix(0.95105652,-0.30901699,-0.30901699,-0.95105652,8,0)"
         points="-8,4 0,0 -8,0 "
         id="use3900" />
    </g>
  </g>
</svg>
